<?xml version="1.0" encoding="utf-8"?>
<!-- Generator: Adobe Illustrator 19.0.0, SVG Export Plug-In . SVG Version: 6.00 Build 0)  -->
<svg version="1.1" id="Layer_1" xmlns="http://www.w3.org/2000/svg" xmlns:xlink="http://www.w3.org/1999/xlink" x="0px" y="0px"
	 viewBox="0 0 500 500" style="enable-background:new 0 0 500 500;" xml:space="preserve">
<style type="text/css">
	.st0{fill:#FFFFFF;}
</style>
<path id="XMLID_18_" class="st0" d="M251.7,1.7C114.5,1.7,3.3,112.8,3.3,250s111.2,248.3,248.3,248.3S500,387.2,500,250
	S388.8,1.7,251.7,1.7z M193.2,174.4c26.7,0,48.4,21.7,48.4,48.4c0,26.7-21.7,48.4-48.4,48.4c-26.7,0-48.4-21.7-48.4-48.4
	C144.8,196.1,166.5,174.4,193.2,174.4z M242.4,373.2H116c-2.2-9.2-3.4-18.9-3.4-29c0-35.7,14.9-67,37.4-84.9
	c10.1,16,25.7,24.8,43.3,24.8c17.6,0,33.2-8.9,43.3-24.8c11.5,9.2,21,21.9,27.6,36.9c-13.8,15.8-22.5,38.5-22.5,63.7
	C241.6,364.4,241.9,368.9,242.4,373.2z M387.8,386.6H255.3c-1.9-7.9-2.9-16.2-2.9-24.9c0-30.6,12.8-57.5,32-72.8
	c8.7,13.7,22.1,20.1,37.2,20.1c15.1,0,28.5-6.4,37.2-20.1c19.3,15.3,32,42.2,32,72.8C390.8,370.4,389.7,378.7,387.8,386.6z
	 M280,255.8c0-22.9,18.6-41.5,41.5-41.5c22.9,0,41.5,18.6,41.5,41.5s-18.6,41.5-41.5,41.5C298.6,297.3,280,278.8,280,255.8z
	 M390.8,187.6c0,8.3-6.8,15.2-15.2,15.2h-92.7l-22.5,22.5v-22.5h-0.2c-8.3,0-15.2-6.8-15.2-15.2v-59c0-8.3,6.8-15.2,15.2-15.2h115.4
	c8.3,0,15.2,6.8,15.2,15.2V187.6z"/>
</svg>
