<?xml version="1.0" encoding="utf-8"?>
<!-- Generator: Adobe Illustrator 19.0.0, SVG Export Plug-In . SVG Version: 6.00 Build 0)  -->
<svg version="1.1" id="Layer_1" xmlns="http://www.w3.org/2000/svg" xmlns:xlink="http://www.w3.org/1999/xlink" x="0px" y="0px"
	 viewBox="0 0 500 500" style="enable-background:new 0 0 500 500;" xml:space="preserve">
<style type="text/css">
	.st0{fill:#FFFFFF;}
</style>
<path id="XMLID_60_" class="st0" d="M250.3,1.7C113.1,1.7,2,112.8,2,250s111.2,248.3,248.3,248.3c137.2,0,248.3-111.2,248.3-248.3
	S387.4,1.7,250.3,1.7z M346.4,187.5c1.1,1.9,0.4,4.4-1.5,5.5l-34.3,19.8c-0.6,0.4-1.3,0.5-2,0.5c-1.4,0-2.7-0.7-3.5-2
	c-1.1-1.9-0.4-4.4,1.5-5.5l34.3-19.8C342.8,184.9,345.3,185.6,346.4,187.5z M280.5,182.7l19.8-34.3c1.1-1.9,3.6-2.6,5.5-1.5
	s2.6,3.6,1.5,5.5l-19.8,34.3c-0.7,1.3-2.1,2-3.5,2c-0.7,0-1.4-0.2-2-0.5C280,187,279.4,184.6,280.5,182.7z M292.3,241.3
	c0,23.4-19,42.4-42.4,42.4s-42.4-19-42.4-42.4c0-23.4,19-42.4,42.4-42.4S292.3,217.9,292.3,241.3z M246.3,136c0-2.2,1.8-4,4-4
	s4,1.8,4,4v39.6c0,2.2-1.8,4-4,4s-4-1.8-4-4V136z M194.8,146.9c1.9-1.1,4.4-0.4,5.5,1.5l19.8,34.3c1.1,1.9,0.4,4.4-1.5,5.5
	c-0.6,0.4-1.3,0.5-2,0.5c-1.4,0-2.7-0.7-3.5-2l-19.8-34.3C192.2,150.4,192.9,148,194.8,146.9z M154.2,187.5c1.1-1.9,3.6-2.6,5.5-1.5
	l34.3,19.8c1.9,1.1,2.6,3.6,1.5,5.5c-0.7,1.3-2.1,2-3.5,2c-0.7,0-1.4-0.2-2-0.5l-34.3-19.8C153.8,191.8,153.1,189.4,154.2,187.5z
	 M139.3,243c0-2.2,1.8-4,4-4H183c2.2,0,4,1.8,4,4s-1.8,4-4,4h-39.6C141.1,247,139.3,245.2,139.3,243z M325.4,372.6H175.2
	c-2.2-8.1-3.3-16.6-3.3-25.4c0-31.3,14.5-58.8,36.3-74.4c9.8,14,25,20.6,42.1,20.6c17.1,0,32.3-6.6,42.1-20.6
	c21.8,15.7,36.3,43.1,36.3,74.4C328.7,356,327.5,364.5,325.4,372.6z M357.2,247h-39.6c-2.2,0-4-1.8-4-4s1.8-4,4-4h39.6
	c2.2,0,4,1.8,4,4S359.5,247,357.2,247z"/>
</svg>
